<svg xmlns="http://www.w3.org/2000/svg" viewBox="0 0 32 32" width="32" height="32">
  <!-- Retro Cyber / Webring Globe -->
  <circle cx="16" cy="16" r="13" fill="#003366" stroke="#5ef1f2" stroke-width="1.5"/>
  <!-- Grid Longitude lines -->
  <ellipse cx="16" cy="16" rx="6" ry="13" fill="none" stroke="#256d85" stroke-width="1"/>
  <line x1="3" y1="16" x2="29" y2="16" stroke="#256d85" stroke-width="1"/>
  <line x1="6" y1="10" x2="26" y2="10" stroke="#256d85" stroke-width="0.8"/>
  <line x1="6" y1="22" x2="26" y2="22" stroke="#256d85" stroke-width="0.8"/>
  <!-- Neon Green Continents Pixelated -->
  <path d="M12,7 Q15,6 18,9 Q19,13 15,14 Q13,12 12,7 Z" fill="#39ff14"/>
  <path d="M18,17 Q22,16 24,19 Q23,24 19,25 Q17,21 18,17 Z" fill="#39ff14"/>
  <path d="M7,13 Q10,14 9,18 Q7,19 6,15 Z" fill="#39ff14"/>
  <!-- Outer Glow Ring -->
  <circle cx="16" cy="16" r="14" fill="none" stroke="#5ef1f2" stroke-width="0.5" opacity="0.6"/>
</svg>